<svg width="99" height="37" viewBox="0 0 99 37" fill="none" xmlns="http://www.w3.org/2000/svg">
<g clip-path="url(#clip0_808_8249)">
<mask id="mask0_808_8249" style="mask-type:luminance" maskUnits="userSpaceOnUse" x="0" y="0" width="99" height="37">
<path d="M99 0H0V37H99V0Z" fill="white"/>
</mask>
<g mask="url(#mask0_808_8249)">
<path d="M33.7877 18.0079C33.7877 13.748 30.2966 10.7373 25.8938 10.7373C21.5355 10.7373 18 13.748 18 18.0079C18 22.2884 21.5355 25.299 25.8938 25.299C30.2966 25.299 33.7877 22.2884 33.7877 18.0079ZM20.6016 18.0079C20.6016 14.7925 22.8252 12.7854 25.8938 12.7854C28.9624 12.7854 31.186 14.7925 31.186 18.0079C31.186 21.2234 28.9624 23.2715 25.8938 23.2715C22.8252 23.2715 20.6016 21.2234 20.6016 18.0079Z" fill="#212121"/>
<path d="M38.8171 19.2163C38.8171 16.8201 39.9734 16.1032 41.8412 16.1032H42.4861V13.6865C40.7517 13.6865 39.5287 14.3829 38.8171 15.5093V13.8708H36.2822V25.1557H38.8171V19.2163Z" fill="#212121"/>
<path d="M43.9712 19.4621C43.9712 22.9438 46.5284 25.34 49.7526 25.34C51.7538 25.34 53.2214 24.4798 53.9997 23.4558V25.1557H56.5568V10H53.9997V15.4479C53.0658 14.3829 51.3758 13.6865 49.7748 13.6865C46.5284 13.6865 43.9712 15.9803 43.9712 19.4621ZM53.9997 19.503C53.9997 21.9402 52.1986 23.3124 50.2863 23.3124C48.3962 23.3124 46.5728 21.8993 46.5728 19.4621C46.5728 17.0249 48.3962 15.7141 50.2863 15.7141C52.1986 15.7141 53.9997 17.0863 53.9997 19.503Z" fill="#212121"/>
<path d="M65.0452 15.6527C66.9353 15.6527 68.4251 16.7586 68.4696 18.4995H61.6876C61.9544 16.7177 63.3331 15.6527 65.0452 15.6527ZM70.7822 21.7968H68.0471C67.5802 22.6775 66.713 23.3739 65.1564 23.3739C63.2886 23.3739 61.8432 22.2474 61.6654 20.3837H71.0268C71.0935 19.9946 71.1157 19.6259 71.1157 19.2368C71.1157 15.9189 68.6475 13.6865 65.1564 13.6865C61.5319 13.6865 59.0415 15.9599 59.0415 19.503C59.0415 23.0462 61.6431 25.34 65.1564 25.34C68.1583 25.34 70.0928 23.763 70.7822 21.7968Z" fill="#212121"/>
<path d="M76.1452 19.2163C76.1452 16.8201 77.3015 16.1032 79.1694 16.1032H79.8143V13.6865C78.0799 13.6865 76.8568 14.3829 76.1452 15.5093V13.8708H73.6104V25.1557H76.1452V19.2163Z" fill="#212121"/>
<path d="M84.6789 19.2163C84.6789 16.8201 85.8352 16.1032 87.703 16.1032H88.3479V13.6865C86.6135 13.6865 85.3905 14.3829 84.6789 15.5093V13.8708H82.144V25.1557H84.6789V19.2163Z" fill="#212121"/>
<path d="M98.483 13.8708H89.9888V15.7755H95.57L89.9888 23.251V25.1558H98.483V23.251H92.9239L98.483 15.7755V13.8708Z" fill="#212121"/>
<path d="M37.8678 6.89828C37.8678 3.96678 35.4913 1.59033 32.5598 1.59033H9.38183C4.96356 1.59033 1.38184 5.17205 1.38184 9.59033V27.4095C1.38184 31.8278 4.96356 35.4095 9.38184 35.4095H33.5456C35.9327 35.4095 37.8678 33.4744 37.8678 31.0873" stroke="#1EA8E7" stroke-width="3"/>
<path d="M71.652 29.614L72.303 33.499L74.333 29.614H75.376L72.723 34.5H71.533L70.602 29.614H71.652ZM76.8106 30.377L76.5866 31.644H78.2316L78.0986 32.4H76.4536L76.2226 33.723H78.0776L77.9376 34.5H75.0956L75.9636 29.607H78.7986L78.6656 30.377H76.8106ZM83.0071 34.5H82.0201L80.4031 31.147L79.8081 34.5H78.8211L79.6891 29.607H80.6691L82.2931 32.967L82.8881 29.607H83.8681L83.0071 34.5ZM86.5446 29.614C86.9973 29.614 87.3869 29.6933 87.7136 29.852C88.0449 30.006 88.2969 30.2277 88.4696 30.517C88.6469 30.8063 88.7356 31.1493 88.7356 31.546C88.7356 31.7233 88.7193 31.896 88.6866 32.064C88.6026 32.554 88.4206 32.9833 88.1406 33.352C87.8653 33.716 87.5153 33.9983 87.0906 34.199C86.6659 34.3997 86.1946 34.5 85.6766 34.5H83.9686L84.8366 29.614H86.5446ZM85.7886 33.702C86.3019 33.702 86.7219 33.5573 87.0486 33.268C87.3799 32.9787 87.5923 32.5773 87.6856 32.064C87.7089 31.91 87.7206 31.777 87.7206 31.665C87.7206 31.273 87.6039 30.9697 87.3706 30.755C87.1419 30.5403 86.8059 30.433 86.3626 30.433H85.6766L85.1026 33.702H85.7886ZM91.2752 34.549C90.8645 34.549 90.5005 34.4627 90.1832 34.29C89.8705 34.1127 89.6279 33.87 89.4552 33.562C89.2825 33.2493 89.1962 32.8923 89.1962 32.491C89.1962 31.931 89.3199 31.427 89.5672 30.979C89.8192 30.531 90.1645 30.181 90.6032 29.929C91.0465 29.6723 91.5435 29.544 92.0942 29.544C92.5095 29.544 92.8735 29.6303 93.1862 29.803C93.5035 29.9757 93.7485 30.2183 93.9212 30.531C94.0939 30.839 94.1802 31.1913 94.1802 31.588C94.1802 32.1573 94.0565 32.666 93.8092 33.114C93.5619 33.562 93.2165 33.9143 92.7732 34.171C92.3299 34.423 91.8305 34.549 91.2752 34.549ZM91.4152 33.646C91.7652 33.646 92.0732 33.5573 92.3392 33.38C92.6099 33.2027 92.8175 32.9647 92.9622 32.666C93.1115 32.3627 93.1862 32.0337 93.1862 31.679C93.1862 31.2963 93.0789 30.9953 92.8642 30.776C92.6495 30.5567 92.3485 30.447 91.9612 30.447C91.6159 30.447 91.3079 30.5357 91.0372 30.713C90.7712 30.8903 90.5635 31.1283 90.4142 31.427C90.2695 31.7257 90.1972 32.0523 90.1972 32.407C90.1972 32.7897 90.3022 33.093 90.5122 33.317C90.7269 33.5363 91.0279 33.646 91.4152 33.646ZM97.1843 29.614C97.6836 29.614 98.0616 29.7283 98.3183 29.957C98.5749 30.181 98.7033 30.475 98.7033 30.839C98.7033 30.9277 98.6963 31.0187 98.6823 31.112C98.6263 31.4293 98.4816 31.7187 98.2483 31.98C98.0196 32.2367 97.7116 32.4163 97.3243 32.519L98.1433 34.5H97.0023L96.2743 32.596H95.8053L95.4693 34.5H94.4823L95.3503 29.614H97.1843ZM97.6743 31.133C97.6836 31.049 97.6883 30.993 97.6883 30.965C97.6883 30.7877 97.6323 30.65 97.5203 30.552C97.4083 30.454 97.2379 30.405 97.0093 30.405H96.1903L95.9313 31.868H96.7503C97.0116 31.868 97.2193 31.8027 97.3733 31.672C97.5319 31.5413 97.6323 31.3617 97.6743 31.133Z" fill="black"/>
</g>
</g>
<defs>
<clipPath id="clip0_808_8249">
<rect width="99" height="37" fill="white"/>
</clipPath>
</defs>
</svg>
