<svg xmlns="http://www.w3.org/2000/svg" version="1.1" xmlns:xlink="http://www.w3.org/1999/xlink"
     xmlns:svgjs="http://svgjs.dev/svgjs" width="1000" height="196" viewBox="0 0 1000 196">
    <g transform="matrix(1,0,0,1,-0.6060606060606233,0.0211277074527203)">
        <svg viewBox="0 0 396 78" data-background-color="#6f6af8" preserveAspectRatio="xMidYMid meet" height="196"
             width="1000" xmlns="http://www.w3.org/2000/svg" xmlns:xlink="http://www.w3.org/1999/xlink">
            <g id="tight-bounds" transform="matrix(1,0,0,1,0.2400000000000091,-0.008407965210778912)">
                <svg viewBox="0 0 395.52 78.01681593042156" height="78.01681593042156" width="395.52">
                    <g>
                        <svg viewBox="0 0 527.894003933654 104.12775418604652" height="78.01681593042156"
                             width="395.52">
                            <g>
                            </g>
                            <g transform="matrix(1,0,0,1,132.37400393365397,26.948644534883726)">
                                <svg viewBox="0 0 395.52 50.23046511627906" height="50.23046511627906" width="395.52">
                                    <g id="textblocktransform">
                                        <svg viewBox="0 0 395.52 50.23046511627906" height="50.23046511627906"
                                             width="395.52" id="textblock">
                                            <g>
                                                <svg viewBox="0 0 395.52 50.23046511627906" height="50.23046511627906"
                                                     width="395.52">
                                                    <g transform="matrix(1,0,0,1,0,0)">
                                                        <svg width="395.52" viewBox="2 -34.95 279.68 34.95"
                                                             height="50.23046511627906" data-palette-color="#ffffff">
                                                            <g class="wordmark-text-0" data-fill-palette-color="primary"
                                                               id="text-0">
                                                                <path d="M11.95 0L2-34.95 8.6-34.95 15.55-10.25 22.4-34.95 27.3-34.95 34.15-10.25 41.1-34.95 47.7-34.95 37.75 0 31.85 0 24.85-24.3 17.85 0 11.95 0ZM52.7 0L52.7-34.95 76.35-34.95 76.35-29.7 59.05-29.7 59.05-20.1 71.9-20.1 71.9-14.85 59.05-14.85 59.05-5.25 76.35-5.25 76.35 0 52.7 0ZM79.85 0L93.85-34.95 100-34.95 113.95 0 107.5 0 104.3-8.05 89.5-8.05 86.35 0 79.85 0ZM91.25-13.3L102.55-13.3 96.9-28.15 91.25-13.3ZM118.94 0L118.94-34.95 125.29-34.95 125.29-5.25 142.09-5.25 142.09 0 118.94 0ZM154.64 0L154.64-29.7 144.09-29.7 144.09-34.95 171.54-34.95 171.54-29.7 160.99-29.7 160.99 0 154.64 0ZM175.54 0L175.54-34.95 181.89-34.95 181.89-20.45 198.69-20.45 198.69-34.95 204.99-34.95 204.99 0 198.69 0 198.69-15.2 181.89-15.2 181.89 0 175.54 0ZM210.99 0L210.99-34.95 217.34-34.95 217.34 0 210.99 0ZM223.33 0L223.33-34.95 246.98-34.95 246.98-29.65 229.68-29.65 229.68-19.85 242.53-19.85 242.53-15.1 229.68-15.1 229.68 0 223.33 0ZM262.68 0L262.68-13.3 249.98-34.95 256.73-34.95 265.73-19.4 274.98-34.95 281.68-34.95 268.73-13.3 268.73 0 262.68 0Z"
                                                                      fill="#ffffff"
                                                                      data-fill-palette-color="primary"></path>
                                                            </g>
                                                        </svg>
                                                    </g>
                                                </svg>
                                            </g>
                                        </svg>
                                    </g>
                                </svg>
                            </g>
                            <g>
                                <svg viewBox="0 0 104.12775418604652 104.12775418604652" height="104.12775418604652"
                                     width="104.12775418604652">
                                    <g>
                                        <svg xmlns="http://www.w3.org/2000/svg" xmlns:xlink="http://www.w3.org/1999/xlink" version="1.1" x="0" y="0" viewBox="3.700000000000003 5 90 90" enable-background="new 0 0 100 100" xml:space="preserve" height="104.12775418604652" width="104.12775418604652" class="icon-icon-0" data-fill-palette-color="accent" id="icon-0"><path d="M48.7 5c-24.9 0-45 20.1-45 45 0 24.9 20.1 45 45 45 24.9 0 45-20.1 45-45C93.7 25.1 73.6 5 48.7 5zM62.4 39.6h-5.5c0 0 0.6 11.2-15.1 13.5l19.4 24.2L53 77.6 34.3 54.4v-5.2c0 0 14.5 2.3 16-9.2l-18.2 0.1 3.1-5.1 14.3-0.3c0 0-1.2-4.1-7.9-4.9L32.1 30l2.6-5.1 30.2-0.5-2.5 5.1h-8.2c0 0 2 2.5 2.4 5.3l8.7-0.3L62.4 39.6z" fill="#ffffff" data-fill-palette-color="accent"></path></svg>
                                    </g>
                                </svg>
                            </g>
                        </svg>
                    </g>
                    <defs></defs>
                </svg>
                <rect width="395.52" height="78.01681593042156" fill="none" stroke="none" visibility="hidden"></rect>
            </g>
        </svg>
    </g>
</svg>